<svg width="48" height="48" viewBox="0 0 48 48" fill="none" xmlns="http://www.w3.org/2000/svg">
<path d="M24.5 4L7.5 42L42 16.5H5.5L40 43L24.5 4Z" stroke="#0491D8" stroke-width="3"/>
<path d="M33.8108 7C33.6717 8.28976 33.9142 12.2607 31.7235 12.0136C31.2668 11.9621 30.8519 11.8857 30.635 11.4555C30.4078 11.0049 30.2199 10.6129 30.1973 10.1011C30.1695 9.47242 30.4197 9.17572 30.928 8.89206C31.1063 8.79258 30.7232 9.19542 30.6893 9.23441C30.4659 9.491 31.2239 9.17815 31.5136 9.11396" stroke="#0491D8" stroke-opacity="0.1" stroke-width="2" stroke-linecap="round" stroke-linejoin="round"/>
<path d="M36.6228 7.61972C35.5147 7.72335 33.9507 7.93347 33.772 9.31952C33.675 10.0714 34.7929 10.1628 35.2781 10.4189C36.1118 10.8588 36.7443 12.2937 35.8092 12.9252C35.1589 13.3643 34.6671 13.131 34.0345 13.1748C33.392 13.2193 33.8393 12.9825 34.2203 12.9176" stroke="#0491D8" stroke-opacity="0.1" stroke-width="2" stroke-linecap="round" stroke-linejoin="round"/>
<g clip-path="url(#clip0_665_68)">
<path d="M15.7206 10.7917C15.7326 10.6959 15.7415 10.5987 15.7415 10.5C15.7415 10.4013 15.7326 10.3043 15.7206 10.2086L16.3528 9.71381C16.3808 9.69155 16.3998 9.65996 16.4064 9.62483C16.413 9.58969 16.4067 9.55336 16.3887 9.52248L15.7908 8.48662C15.7535 8.42231 15.6757 8.39533 15.6085 8.42231L14.864 8.72273C14.709 8.60326 14.5392 8.5043 14.3589 8.42829L14.2467 7.63612C14.2402 7.60112 14.2217 7.56946 14.1945 7.54656C14.1672 7.52366 14.1328 7.51094 14.0972 7.51056H12.9014C12.8267 7.51056 12.7653 7.56583 12.7534 7.63598L12.6414 8.42829C12.4607 8.50373 12.2908 8.60279 12.1361 8.72287L11.3917 8.42216C11.3587 8.40955 11.3222 8.40908 11.2888 8.42083C11.2554 8.43258 11.2273 8.45579 11.2094 8.48633L10.6115 9.52233C10.574 9.5865 10.5905 9.66729 10.6473 9.71366L11.2781 10.2085C11.265 10.3051 11.258 10.4023 11.2571 10.5C11.2571 10.5986 11.2662 10.6957 11.2781 10.7914L10.6473 11.2862C10.5904 11.3311 10.574 11.4117 10.6114 11.4775L11.2093 12.5134C11.2466 12.5777 11.3245 12.6047 11.3916 12.5777L12.1361 12.2773C12.2911 12.3967 12.461 12.4957 12.6414 12.5717L12.7534 13.364C12.7653 13.4342 12.8267 13.4894 12.9014 13.4894H14.0972C14.172 13.4894 14.2333 13.4342 14.2453 13.364L14.3574 12.5717C14.5381 12.4963 14.7079 12.3972 14.8626 12.2771L15.607 12.5777C15.6753 12.6038 15.7524 12.5765 15.7893 12.5135L16.3873 11.4775C16.4246 11.4134 16.4083 11.3326 16.3514 11.2862L15.7206 10.7917Z" stroke="#0491D8" stroke-opacity="0.1" stroke-width="0.5" stroke-linecap="round" stroke-linejoin="round"/>
<path d="M13.4992 11.851C14.2453 11.851 14.8502 11.2461 14.8502 10.5C14.8502 9.75385 14.2453 9.14899 13.4992 9.14899C12.7531 9.14899 12.1482 9.75385 12.1482 10.5C12.1482 11.2461 12.7531 11.851 13.4992 11.851Z" stroke="#0491D8" stroke-opacity="0.1" stroke-width="0.5" stroke-linecap="round" stroke-linejoin="round"/>
<path d="M13.4993 9.14899H16.1447M14.5226 11.3833L12.794 13.4432M11.2781 10.2086L12.3705 11.2426" stroke="#0491D8" stroke-opacity="0.1" stroke-width="0.5" stroke-linecap="round" stroke-linejoin="round"/>
</g>
<path d="M4.80691 25.3099C4.87745 25.576 5.14979 26.5656 5.21493 26.9271C5.39431 27.9226 5.11286 26.5642 5.11217 27.0039" stroke="#0491D8" stroke-opacity="0.1" stroke-width="2" stroke-linecap="round" stroke-linejoin="round"/>
<path d="M4.32922 25.7402C4.30517 25.3351 4.2143 24.773 4.78227 24.8308C5.04947 24.8581 5.34381 25.0167 5.51039 25.2289C5.76781 25.5568 5.63201 26.065 5.35385 26.326C5.20583 26.4649 5.06221 26.5345 4.86846 26.587C4.54027 26.6759 4.79928 26.2201 4.85213 26.0951" stroke="#0491D8" stroke-opacity="0.1" stroke-width="2" stroke-linecap="round" stroke-linejoin="round"/>
<path d="M5.80652 26.2352C6.37086 26.205 6.89032 26.0939 7.0922 26.7059C7.20953 27.0616 7.3524 27.4938 7.25459 27.8686C7.16622 28.2073 6.97589 28.419 6.62785 28.2747C6.13052 28.0686 6.13119 27.6804 6.40188 27.2933C6.50154 27.1508 6.88325 26.8654 6.88351 26.6988" stroke="#0491D8" stroke-opacity="0.1" stroke-width="2" stroke-linecap="round" stroke-linejoin="round"/>
<path d="M6.82346 25.5748C6.80421 25.7233 6.80391 26.7737 6.51962 26.7838C6.46631 26.7857 6.42154 26.8134 6.37499 26.8366C6.19601 26.9257 6.30488 26.8455 6.3717 26.7527C6.52303 26.5427 6.82957 26.6203 6.98305 26.3414C7.14972 26.0387 7.22649 25.8897 6.98755 25.6555C6.8201 25.4913 6.89366 25.2121 6.76182 25.6055" stroke="#0491D8" stroke-opacity="0.1" stroke-width="2" stroke-linecap="round" stroke-linejoin="round"/>
<path d="M7.65658 24.6215C7.8747 25.1125 8.07404 25.752 8.42393 26.1794C8.51639 26.2924 8.56829 26.1941 8.56689 26.1061C8.56511 25.9949 8.53375 25.8828 8.50154 25.7775" stroke="#0491D8" stroke-opacity="0.1" stroke-width="2" stroke-linecap="round" stroke-linejoin="round"/>
<path d="M7.0234 25.8984C7.36946 25.7622 8.21916 25.6244 8.36397 25.1923" stroke="#0491D8" stroke-opacity="0.1" stroke-width="2" stroke-linecap="round" stroke-linejoin="round"/>
<path d="M8.0874 24.6377C9.58733 27.2613 8.12599 25.4173 8.88838 24.9375C9.35115 24.6462 9.38977 26.019 9.51799 25.4252" stroke="#0491D8" stroke-opacity="0.1" stroke-width="2" stroke-linecap="round" stroke-linejoin="round"/>
<path d="M9.42722 24.5474C9.48163 24.7102 9.6644 25.7843 10.0449 25.5389C10.2151 25.4292 10.4132 25.22 10.446 25.0143C10.4812 24.7937 10.3434 24.2331 10.0315 24.2935C9.88913 24.321 9.65108 24.3277 9.55822 24.463C9.46845 24.5937 9.41179 24.8999 9.51954 24.5784" stroke="#0491D8" stroke-opacity="0.1" stroke-width="2" stroke-linecap="round" stroke-linejoin="round"/>
<path d="M10.4897 24.2873C10.915 24.0142 11.415 23.9246 11.4797 24.5677C11.4878 24.6484 11.4893 24.7501 11.5263 24.8244C11.5693 24.9106 11.4811 24.6138 11.3976 24.5659" stroke="#0491D8" stroke-opacity="0.1" stroke-width="2" stroke-linecap="round" stroke-linejoin="round"/>
<path d="M10.4587 24.5336C10.4779 24.8698 10.4299 25.3252 10.5869 25.6406C10.5923 25.6514 10.6297 25.7337 10.6108 25.6886C10.5736 25.5994 10.5582 25.5388 10.488 25.442" stroke="#0491D8" stroke-opacity="0.1" stroke-width="2" stroke-linecap="round" stroke-linejoin="round"/>
<path d="M36.0836 26.9711C36.6718 26.1748 36.7028 25.3657 36.9228 24.4473C36.9655 24.2686 37.0635 23.7166 37.2746 23.6642C37.6075 23.5815 37.9087 23.5452 38.2581 23.6289C38.4904 23.6845 38.7221 23.7471 38.9559 23.796C39.1897 23.8449 39.4373 23.8044 39.6736 23.8312C40.1133 23.8812 40.5401 24.0605 40.9619 24.1615C41.2969 24.2417 41.6329 24.3682 41.9551 24.4454C42.0123 24.4591 42.2389 24.5422 42.2686 24.5843C42.3593 24.7133 42.2874 24.868 42.3567 24.9784" stroke="#0491D8" stroke-opacity="0.1" stroke-linecap="round" stroke-linejoin="round"/>
<path d="M42.3157 25.0517C42.2676 25.3167 42.1852 25.685 42.2316 25.9663C42.2617 26.1486 42.1533 26.3557 42.1252 26.5355C42.0712 26.8805 41.9417 27.1985 41.863 27.5269C41.7575 27.9676 41.6754 28.4079 41.5705 28.8461C41.4804 29.2222 41.128 29.0712 40.85 28.9488C40.6098 28.843 40.251 28.8538 39.9885 28.7944C39.4822 28.6797 38.9659 28.5962 38.4602 28.4751C38.0379 28.374 37.7537 28.1762 37.4002 27.9356C37.2114 27.8071 37.0817 27.7944 36.8586 27.741C36.6474 27.6904 36.4816 27.6157 36.2539 27.6312C36.1208 27.6402 35.9069 27.5537 35.8668 27.4099C35.8187 27.2376 36.0025 27.2118 36.0323 27.0873C36.0574 26.9828 36.1158 26.6807 36.0836 26.9711" stroke="#0491D8" stroke-opacity="0.1" stroke-linecap="round" stroke-linejoin="round"/>
<path d="M39.2388 24.9223C39.2388 24.9223 39.3166 24.9877 39.3838 25.0973C39.4563 25.1848 39.6504 25.1962 39.8069 25.2337C39.8892 25.2534 39.9915 25.21 40.0732 25.1949C40.2387 25.1642 40.1196 25.2679 40.0666 25.3309C40.008 25.4007 40.018 25.5589 40.0778 25.6257C40.1765 25.736 40.3105 25.6933 40.4401 25.6632C40.494 25.6507 40.4834 25.6364 40.4905 25.6726C40.5 25.7218 40.481 25.7853 40.4694 25.8338C40.443 25.944 40.3919 26.1253 40.3099 26.2071C40.2019 26.3148 40.1038 26.3777 39.9566 26.4406C39.8112 26.5028 39.6098 26.6237 39.4457 26.5844C39.125 26.5076 38.8014 26.3562 38.7157 26.0058C38.6794 25.8573 38.5805 25.7191 38.6167 25.5679C38.6469 25.4418 38.6414 25.2806 38.712 25.1701C38.7976 25.036 38.9571 24.9276 38.9129 24.917C38.9338 24.9288 39.1609 24.8569 39.2388 24.9223Z" stroke="#0491D8" stroke-opacity="0.1" stroke-linecap="round" stroke-linejoin="round"/>
<path d="M39.622 24.9323C39.7574 24.916 40.0645 24.8876 40.1674 24.7532C40.2469 24.6494 40.0814 24.5866 39.9905 24.5648C39.8803 24.5384 39.7132 24.6595 39.6608 24.7488C39.6317 24.7984 39.603 24.8495 39.5739 24.9C39.5599 24.9243 39.5657 24.9458 39.5653 24.9713C39.565 24.9907 39.7548 24.9426 39.7545 24.9157" stroke="#0491D8" stroke-opacity="0.1" stroke-linecap="round" stroke-linejoin="round"/>
<path d="M41.2146 27.9434L36.3407 26.8887C35.8203 26.776 35.3053 27.0999 35.1813 27.6176C35.0553 28.1436 35.3795 28.672 35.9055 28.798L40.7551 29.9595C41.3105 30.0925 41.8685 29.7502 42.0015 29.1948C42.1366 28.6308 41.7815 28.0661 41.2146 27.9434Z" stroke="#0491D8" stroke-opacity="0.1"/>
<path d="M37.419 27.1187C37.4652 27.2501 37.4958 27.4018 37.5548 27.5273C37.5845 27.5904 37.5803 27.578 37.6697 27.5672C37.819 27.5493 37.9656 27.6229 38.1086 27.6572C38.2342 27.6872 38.3959 27.6566 38.5101 27.7187C38.6424 27.7907 38.8265 27.7579 38.9664 27.7879C39.1351 27.8241 39.2911 27.8781 39.4579 27.9181C39.5585 27.9422 39.6706 27.9068 39.7636 27.9291C39.8176 27.942 39.9613 28.0217 39.989 27.9236C40.0024 27.8758 40.0353 27.8341 40.047 27.7854C40.0627 27.7194 40.0164 27.7385 39.9579 27.6894" stroke="#0491D8" stroke-opacity="0.1" stroke-linecap="round" stroke-linejoin="round"/>
<defs>
<clipPath id="clip0_665_68">
<rect width="7" height="7" fill="white" transform="translate(10 7)"/>
</clipPath>
</defs>
</svg>
